<?xml version="1.0" encoding="utf-8"?>
<!-- Generator: Adobe Illustrator 26.5.0, SVG Export Plug-In . SVG Version: 6.00 Build 0)  -->
<svg version="1.1" id="Layer_1" xmlns="http://www.w3.org/2000/svg" xmlns:xlink="http://www.w3.org/1999/xlink" x="0px" y="0px"
	 viewBox="0 0 691 686.6" enable-background="new 0 0 691 686.6" xml:space="preserve">
<path opacity="0.3" enable-background="new    " d="M690.8,565.5H0v26.6c0,52.2,42.3,94.5,94.5,94.5h501.9
	c52.2,0,94.5-42.3,94.5-94.5v-26.6H690.8z"/>
<path fill="#E2E2E2" d="M691,568H0.1V94.5C0.1,42.3,42.4,0,94.6,0h501.9C648.7,0,691,42.3,691,94.5V568z"/>
<path fill="#FFFFFF" d="M656.4,530H34.7V129c0-52.2,42.3-94.5,94.5-94.5H562c52.2,0,94.5,42.3,94.5,94.5L656.4,530L656.4,530z"/>
</svg>
