<?xml version="1.0" encoding="utf-8"?>
<!-- Generator: Adobe Illustrator 26.5.0, SVG Export Plug-In . SVG Version: 6.00 Build 0)  -->
<svg version="1.1" id="Layer_1" xmlns="http://www.w3.org/2000/svg" xmlns:xlink="http://www.w3.org/1999/xlink" x="0px" y="0px"
	 viewBox="0 0 757.9 402.6" enable-background="new 0 0 757.9 402.6" xml:space="preserve">
<path fill="#E2E2E2" d="M757.9,339.5H0v19.1c0,24.3,19.7,43.9,43.9,43.9H715c23.7,0,42.9-19.2,42.9-42.9V339.5z"/>
<path fill="#E2E2E2" d="M757.9,339.6H0V43.9C0,19.7,19.7,0,43.9,0H715c23.7,0,42.9,19.2,42.9,42.9V339.6z"/>
<path opacity="0.3" d="M757.9,339.5H0v19.1c0,24.3,19.7,43.9,43.9,43.9H715c23.7,0,42.9-19.2,42.9-42.9V339.5z"/>
<path fill="#777777" d="M739.6,322.6H18.3V60.9C18.3,36.7,38,17,62.2,17h634.5c23.7,0,42.9,19.2,42.9,42.9V322.6z"/>
</svg>
